<?xml version="1.0" encoding="utf-8"?>
<!-- Generator: Adobe Illustrator 19.0.0, SVG Export Plug-In . SVG Version: 6.00 Build 0)  -->
<svg version="1.1" id="Layer_1" xmlns="http://www.w3.org/2000/svg" xmlns:xlink="http://www.w3.org/1999/xlink" x="0px" y="0px"
	 viewBox="0 0 500 500" style="enable-background:new 0 0 500 500;" xml:space="preserve">
<style type="text/css">
	.st0{fill:url(#XMLID_36_);}
	.st1{fill:url(#XMLID_37_);}
	.st2{fill:url(#XMLID_41_);}
	.st3{fill:url(#XMLID_42_);}
	.st4{fill:url(#XMLID_43_);}
	.st5{fill:url(#XMLID_44_);}
	.st6{fill:url(#XMLID_45_);}
	.st7{fill:url(#XMLID_46_);}
	.st8{fill:url(#XMLID_47_);}
	.st9{fill:url(#XMLID_48_);}
	.st10{fill:url(#XMLID_49_);}
	.st11{fill:url(#XMLID_50_);}
	.st12{fill:url(#XMLID_52_);}
	.st13{fill:url(#XMLID_53_);}
	.st14{fill:#FFFFFF;}
</style>
<g id="XMLID_1_">
	
		<linearGradient id="XMLID_36_" gradientUnits="userSpaceOnUse" x1="0.1227" y1="4.861741e-002" x2="1.1" y2="4.861741e-002" gradientTransform="matrix(0.9563 173.1814 -173.1814 0.9563 234.5186 168.1284)">
		<stop  offset="0" style="stop-color:#7D7D7D"/>
		<stop  offset="1" style="stop-color:#7D7D7D"/>
	</linearGradient>
	<path id="XMLID_3_" class="st0" d="M205.8,279.3c-3.8,0-7,3.1-7,7c0,3.8,3.1,7,7,7h29.9c10.4,0,18.9-8.5,18.9-18.9
		c0-10.4-8.5-18.9-18.9-18.9h-17.9c-1.4,0-2.6-0.6-3.5-1.5c-0.9-0.9-1.5-2.2-1.5-3.5c0-1.4,0.6-2.6,1.5-3.5c0.9-0.9,2.2-1.5,3.5-1.5
		h26.9c3.8,0,7-3.1,7-7c0-3.8-3.1-7-7-7h-26.9c-10.4,0-18.9,8.5-18.9,18.9c0,10.4,8.5,18.9,18.9,18.9h17.9c1.4,0,2.6,0.6,3.5,1.5
		c0.9,0.9,1.5,2.2,1.5,3.5c0,1.4-0.6,2.6-1.5,3.5c-0.9,0.9-2.2,1.5-3.5,1.5H205.8v2l29.9,0c3.8,0,7-3.1,7-7c0-3.8-3.1-7-7-7h-17.9
		c-4.7,0-8.9-1.9-12-5c-3.1-3.1-5-7.3-5-12c0-4.7,1.9-8.9,5-12c3.1-3.1,7.3-5,12-5h26.9c1.4,0,2.6,0.6,3.5,1.5
		c0.9,0.9,1.5,2.2,1.5,3.5c0,1.4-0.6,2.6-1.5,3.5c-0.9,0.9-2.2,1.5-3.5,1.5h-26.9c-3.8,0-7,3.1-7,7c0,3.8,3.1,7,7,7h17.9
		c4.7,0,8.9,1.9,12,5c3.1,3.1,5,7.3,5,12c0,4.7-1.9,8.9-5,12c-3.1,3.1-7.3,5-12,5h-29.9c-1.4,0-2.6-0.6-3.5-1.5
		c-0.9-0.9-1.5-2.2-1.5-3.5c0-1.4,0.6-2.6,1.5-3.5c0.9-0.9,2.2-1.5,3.5-1.5V279.3L205.8,279.3z"/>
	
		<linearGradient id="XMLID_37_" gradientUnits="userSpaceOnUse" x1="0.1227" y1="5.606062e-002" x2="1.1" y2="5.606062e-002" gradientTransform="matrix(0.9563 173.1814 -173.1814 0.9563 291.1871 167.8155)">
		<stop  offset="0" style="stop-color:#7D7D7D"/>
		<stop  offset="1" style="stop-color:#7D7D7D"/>
	</linearGradient>
	<path id="XMLID_4_" class="st1" d="M270,269.3h22.4c3.8,0,7-3.1,7-7c0-3.8-3.1-7-7-7H271v-10h28.9c3.8,0,7-3.1,7-7c0-3.8-3.1-7-7-7
		h-35.9c-3.8,0-7,3.1-7,7v47.9c0,3.8,3.1,7,7,7c3.8,0,7-3.1,7-7v-17.9h-2v17.9c0,1.4-0.6,2.6-1.5,3.5c-0.9,0.9-2.2,1.5-3.5,1.5
		c-1.4,0-2.6-0.6-3.5-1.5c-0.9-0.9-1.5-2.2-1.5-3.5v-47.9c0-1.4,0.6-2.6,1.5-3.5c0.9-0.9,2.2-1.5,3.5-1.5h35.9
		c1.4,0,2.6,0.6,3.5,1.5c0.9,0.9,1.5,2.2,1.5,3.5c0,1.4-0.6,2.6-1.5,3.5c-0.9,0.9-2.2,1.5-3.5,1.5h-30.9v13.9h23.4
		c1.4,0,2.6,0.6,3.5,1.5c0.9,0.9,1.5,2.2,1.5,3.5c0,1.4-0.6,2.6-1.5,3.5c-0.9,0.9-2.2,1.5-3.5,1.5H270V269.3L270,269.3z"/>
	
		<linearGradient id="XMLID_41_" gradientUnits="userSpaceOnUse" x1="0.1227" y1="6.430239e-002" x2="1.1" y2="6.430239e-002" gradientTransform="matrix(0.9563 173.1814 -173.1814 0.9563 353.9384 167.469)">
		<stop  offset="0" style="stop-color:#7D7D7D"/>
		<stop  offset="1" style="stop-color:#7D7D7D"/>
	</linearGradient>
	<path id="XMLID_5_" class="st2" d="M343.3,272.3c1.7,0,3.6-0.6,4.9-2.1l-0.7-0.7l0.7,0.7l15.1-15.1v31.1c0,3.8,3.1,7,7,7
		c3.8,0,7-3.1,7-7v-47.9c0-3.8-3.1-7-7-7c-1.9,0-3.6,0.8-4.9,2.1l-22,22l-22-22c-1.3-1.3-3-2.1-4.9-2.1c-3.8,0-7,3.1-7,7v47.9
		c0,3.8,3.1,7,7,7c3.8,0,7-3.1,7-7v-31.1l15.1,15.1l0.7-0.7l-0.7,0.7C339.7,271.7,341.6,272.3,343.3,272.3v-2
		c-1.3,0-2.6-0.5-3.5-1.5l0,0l-18.4-18.4v35.8c0,1.4-0.6,2.6-1.5,3.5c-0.9,0.9-2.2,1.5-3.5,1.5c-1.4,0-2.6-0.6-3.5-1.5
		c-0.9-0.9-1.5-2.2-1.5-3.5v-47.9c0-1.4,0.6-2.6,1.5-3.5c0.9-0.9,2.2-1.5,3.5-1.5c1.3,0,2.6,0.5,3.5,1.5l23.4,23.4l23.4-23.4
		c1-0.9,2.2-1.5,3.5-1.5c1.4,0,2.6,0.6,3.5,1.5c0.9,0.9,1.5,2.2,1.5,3.5v47.9c0,1.4-0.6,2.6-1.5,3.5c-0.9,0.9-2.2,1.5-3.5,1.5
		c-1.4,0-2.6-0.6-3.5-1.5c-0.9-0.9-1.5-2.2-1.5-3.5v-35.8l-18.4,18.4l0,0c-0.9,1-2.2,1.5-3.5,1.5V272.3L343.3,272.3z"/>
	
		<linearGradient id="XMLID_42_" gradientUnits="userSpaceOnUse" x1="0.1227" y1="7.292237e-002" x2="1.1" y2="7.292237e-002" gradientTransform="matrix(0.9563 173.1814 -173.1814 0.9563 419.5676 167.1066)">
		<stop  offset="0" style="stop-color:#7D7D7D"/>
		<stop  offset="1" style="stop-color:#7D7D7D"/>
	</linearGradient>
	<path id="XMLID_6_" class="st3" d="M382.7,286.3c0,3.8,3.1,7,7,7h35.9c3.8,0,7-3.1,7-7c0-3.8-3.1-7-7-7h-28.9l0-40.9
		c0-3.8-3.1-7-7-7c-3.8,0-7,3.1-7,7V286.3h2v-47.9c0-1.4,0.6-2.6,1.5-3.5c0.9-0.9,2.2-1.5,3.5-1.5c1.4,0,2.6,0.6,3.5,1.5
		c0.9,0.9,1.5,2.2,1.5,3.5v42.8h30.9c1.4,0,2.6,0.6,3.5,1.5c0.9,0.9,1.5,2.2,1.5,3.5c0,1.4-0.6,2.6-1.5,3.5
		c-0.9,0.9-2.2,1.5-3.5,1.5h-35.9c-1.4,0-2.6-0.6-3.5-1.5c-0.9-0.9-1.5-2.2-1.5-3.5H382.7L382.7,286.3z"/>
	
		<linearGradient id="XMLID_43_" gradientUnits="userSpaceOnUse" x1="-0.1271" y1="-6.052637e-002" x2="0.8502" y2="-6.052637e-002" gradientTransform="matrix(0 -129.1091 129.1091 0 234.5326 341.7564)">
		<stop  offset="0" style="stop-color:#B4B4B4"/>
		<stop  offset="1" style="stop-color:#FFFFFF"/>
	</linearGradient>
	<path id="XMLID_7_" class="st4" d="M205.8,280.3c-3.3,0-6,2.7-6,6c0,3.3,2.7,6,6,6h29.9c9.9,0,17.9-8,17.9-17.9
		c0-9.9-8-17.9-17.9-17.9h-17.9c-3.3,0-6-2.7-6-6c0-3.3,2.7-6,6-6h26.9c3.3,0,6-2.7,6-6c0-3.3-2.7-6-6-6h-26.9
		c-9.9,0-17.9,8-17.9,17.9s8,17.9,17.9,17.9h17.9c3.3,0,6,2.7,6,6c0,3.3-2.7,6-6,6H205.8"/>
	
		<linearGradient id="XMLID_44_" gradientUnits="userSpaceOnUse" x1="-0.1271" y1="-7.049238e-002" x2="0.8502" y2="-7.049238e-002" gradientTransform="matrix(0 -129.1091 129.1091 0 291.1015 341.7564)">
		<stop  offset="0" style="stop-color:#B4B4B4"/>
		<stop  offset="1" style="stop-color:#FFFFFF"/>
	</linearGradient>
	<path id="XMLID_8_" class="st5" d="M270,268.3h22.4c3.3,0,6-2.7,6-6s-2.7-6-6-6H270v-12h29.9c3.3,0,6-2.7,6-6c0-3.3-2.7-6-6-6
		h-35.9c-3.3,0-6,2.7-6,6v47.9c0,3.3,2.7,6,6,6s6-2.7,6-6V268.3"/>
	
		<linearGradient id="XMLID_45_" gradientUnits="userSpaceOnUse" x1="-0.1271" y1="-8.154815e-002" x2="0.8502" y2="-8.154815e-002" gradientTransform="matrix(0 -129.1091 129.1091 0 353.8547 341.7564)">
		<stop  offset="0" style="stop-color:#B4B4B4"/>
		<stop  offset="1" style="stop-color:#FFFFFF"/>
	</linearGradient>
	<path id="XMLID_9_" class="st6" d="M343.3,271.3c1.5,0,3.1-0.6,4.2-1.8l16.7-16.7v33.5c0,3.3,2.7,6,6,6c3.3,0,6-2.7,6-6v-47.9
		c0-3.3-2.7-6-6-6c-1.6,0-3.1,0.7-4.2,1.8l-22.7,22.7l-22.7-22.7c-1.1-1.1-2.6-1.8-4.2-1.8c-3.3,0-6,2.7-6,6v47.9c0,3.3,2.7,6,6,6
		s6-2.7,6-6v-33.5l16.7,16.7C340.2,270.8,341.8,271.3,343.3,271.3"/>
	
		<linearGradient id="XMLID_46_" gradientUnits="userSpaceOnUse" x1="-0.1271" y1="-9.313449e-002" x2="0.8502" y2="-9.313449e-002" gradientTransform="matrix(0 -129.1091 129.1091 0 419.6211 341.7564)">
		<stop  offset="0" style="stop-color:#B4B4B4"/>
		<stop  offset="1" style="stop-color:#FFFFFF"/>
	</linearGradient>
	<path id="XMLID_10_" class="st7" d="M383.7,286.3c0,3.3,2.7,6,6,6h35.9c3.3,0,6-2.7,6-6c0-3.3-2.7-6-6-6h-29.9v-41.9
		c0-3.3-2.7-6-6-6c-3.3,0-6,2.7-6,6V286.3"/>
	
		<linearGradient id="XMLID_47_" gradientUnits="userSpaceOnUse" x1="-0.2795" y1="-0.1245" x2="0.6978" y2="-0.1245" gradientTransform="matrix(0 -64.7141 64.7141 0 234.6801 277.0841)">
		<stop  offset="0" style="stop-color:#B4B4B4"/>
		<stop  offset="1" style="stop-color:#FFFFFF"/>
	</linearGradient>
	<path id="XMLID_11_" class="st8" d="M239.7,270c1.2,1.1,1.9,2.7,1.9,4.4c0,3.3-2.7,6-6,6h-29.9c-3.3,0-6,2.7-6,6c0,3.3,2.7,6,6,6
		h29.9c9.9,0,17.9-8,17.9-17.9c0-1.5-0.2-2.9-0.5-4.3c-1.1,0-2.1,0-3.1,0C246.4,270,243.1,270,239.7,270L239.7,270z"/>
	
		<linearGradient id="XMLID_48_" gradientUnits="userSpaceOnUse" x1="-0.2795" y1="-0.1379" x2="0.6978" y2="-0.1379" gradientTransform="matrix(0 -64.7141 64.7141 0 272.8844 277.0841)">
		<stop  offset="0" style="stop-color:#B4B4B4"/>
		<stop  offset="1" style="stop-color:#FFFFFF"/>
	</linearGradient>
	<path id="XMLID_12_" class="st9" d="M269.9,269.8c-4,0.1-8,0.2-12,0.2v16.3c0,3.3,2.7,6,6,6c3.3,0,6-2.7,6-6V269.8L269.9,269.8z"/>
	
		<linearGradient id="XMLID_49_" gradientUnits="userSpaceOnUse" x1="-0.2795" y1="-0.1664" x2="0.6978" y2="-0.1664" gradientTransform="matrix(0 -64.7141 64.7141 0 354.0329 277.0841)">
		<stop  offset="0" style="stop-color:#B4B4B4"/>
		<stop  offset="1" style="stop-color:#FFFFFF"/>
	</linearGradient>
	<path id="XMLID_16_" class="st10" d="M376.2,258.8c-3.9,0.8-7.9,1.5-11.9,2.2v25.3c0,3.3,2.7,6,6,6c3.3,0,6-2.7,6-6L376.2,258.8
		L376.2,258.8z M354.5,262.6c-6.4,1-13,1.9-19.8,2.7l4.3,4.3c1.1,1.2,2.7,1.8,4.2,1.8c1.5,0,3.1-0.6,4.2-1.8L354.5,262.6
		L354.5,262.6z M322.3,266.6c-3.9,0.4-7.9,0.7-11.9,1v18.7c0,3.3,2.7,6,6,6c3.3,0,6-2.7,6-6L322.3,266.6L322.3,266.6z"/>
	
		<linearGradient id="XMLID_50_" gradientUnits="userSpaceOnUse" x1="-0.2795" y1="-0.1895" x2="0.6978" y2="-0.1895" gradientTransform="matrix(0 -64.7141 64.7141 0 419.7749 277.0841)">
		<stop  offset="0" style="stop-color:#B4B4B4"/>
		<stop  offset="1" style="stop-color:#FFFFFF"/>
	</linearGradient>
	<path id="XMLID_17_" class="st11" d="M395.5,254.5c-3.9,1-7.8,1.9-11.9,2.8v29c0,3.3,2.7,6,6,6h35.9c3.3,0,6-2.7,6-6
		c0-3.3-2.7-6-6-6h-29.9V254.5L395.5,254.5z"/>
	
		<linearGradient id="XMLID_52_" gradientUnits="userSpaceOnUse" x1="0.1053" y1="2.976697e-002" x2="1.0825" y2="2.976697e-002" gradientTransform="matrix(0 196.3999 -196.3999 0 130.3501 172.1419)">
		<stop  offset="0" style="stop-color:#A9EE52"/>
		<stop  offset="1" style="stop-color:#53880E"/>
	</linearGradient>
	<path id="XMLID_18_" class="st12" d="M143.3,203.6l3.8,2.8l3.8,2.8l3.8,2.8l3.8,2.8l3.8,2.8l3.8,2.8c19.3,14.2,17,19.9,11.7,36.1
		l-1.5,4.5l-1.5,4.5l-1.5,4.5l-1.5,4.5l-1.5,4.5l-1.5,4.5c-7.5,22.7-13.6,22.3-30.7,22.3h-28.2c-23.9-0.1-25.4-6.1-30.7-22.3
		l-1.5-4.5l-1.5-4.5l-1.5-4.5l-1.5-4.5l-1.5-4.5l-1.5-4.5c-7.3-22.8-2.1-26.1,11.7-36.1l3.8-2.8l3.8-2.8l3.8-2.8l3.8-2.8l3.8-2.8
		l3.8-2.8C124.8,189.7,129.5,193.6,143.3,203.6L143.3,203.6z"/>
	
		<linearGradient id="XMLID_53_" gradientUnits="userSpaceOnUse" x1="0.1591" y1="4.439766e-002" x2="1.1363" y2="4.439766e-002" gradientTransform="matrix(0 129.8999 -129.8999 0 126.8788 172.1552)">
		<stop  offset="0" style="stop-color:#A9EE52"/>
		<stop  offset="1" style="stop-color:#53880E"/>
	</linearGradient>
	<path id="XMLID_19_" class="st13" d="M67.7,242.9c0.4,3.6,1.4,7.9,3.1,13.4l1.4,4.5l1.5,4.5l1.4,4.5l1.5,4.5l1.4,4.5l1.5,4.5
		c5.3,16.3,6.8,22.2,30.7,22.3h28.2c17.1,0,23.2,0.4,30.7-22.3l1.4-4.5l1.5-4.5l1.4-4.5l1.1-3.4C131,261.8,93.7,253.6,67.7,242.9
		L67.7,242.9z"/>
	<path id="XMLID_20_" class="st14" d="M144.1,214.3l-4,15.2l1,0.8l2.6,1.9l2.6,1.9l2.6,1.9l2.6,1.9l2.8,2c2.3,1.6,3,2.4,3.3,2.6
		c-0.1,0.3-0.3,1.3-1.2,4.1l-1,3.1l-1,3.1l-1,3.1l-1,3.1l-1,3.1l-1,3.1l-1,3.1l-1,3.1l-1,3.1l-1.1,3.3c-0.8,2.7-1.3,3.6-1.5,3.9
		c-0.3,0-1.3,0.1-4.3,0.1H108c-2.8,0.1-3.8-0.1-4.2-0.2c-0.1-0.2-0.5-0.9-1.4-4.1l-1-3.1l-1-3.1l-1-3.1l-1-3.1l-1-3.1l-1-3.1l-1-3.1
		l-1-3.1l-1-3.1l-1.1-3.3c-1-2.7-1.1-3.7-1.1-4c0.2-0.2,0.7-0.7,3.4-2.6l2.6-1.9l2.7-1.9l2.6-1.9l2.6-1.9l2.6-1.9l1-0.7l-4-15.2
		l-0.4,0.3l-2.6,1.9l-2.6,1.9l-2.6,1.9l-2.7,1.9l-2.6,1.9l-2.6,1.9L86,228c-3.1,2.3-6.5,4.2-8.5,8.9c-1.9,4.7-0.8,9.3,0.9,14.3
		l1,3.1l1,3.1l1,3.1l1,3.1l1,3.1l1,3.1l1,3.1l1,3.1l1,3.1l1,3.1c1.2,3.7,2,7.5,5.9,10.8c3.9,3.3,8.6,3.6,13.9,3.5h32.5
		c3.9,0,7.7,0.5,12.1-2.2c4.3-2.7,6.1-7,7.6-12.1l1-3.1l1-3.1l1-3.1l1-3.1l1-3.1l1-3.1l1-3.1l1-3.1l1-3.1l1-3.1
		c1.2-3.7,2.9-7.2,1.6-12.2c-1.2-4.9-4.8-8-9.2-11l-2.6-1.9l-2.7-1.9l-2.6-1.9l-2.6-1.9l-2.6-1.9l-2.6-1.9l-2.6-1.9L144.1,214.3
		L144.1,214.3z"/>
	<path id="XMLID_21_" class="st14" d="M123.7,203.5c-4.2,0.3-7.8,2.5-11.5,5.3l-0.1,0.1l10.1,38.8l4.4,0l10.1-38.8l-0.1-0.1
		c-3.1-2.3-6-4.9-11.1-5.3C124.9,203.5,124.3,203.5,123.7,203.5L123.7,203.5z"/>
</g>
</svg>
